<?xml version="1.0" standalone="no"?>
<!DOCTYPE svg PUBLIC "-//W3C//DTD SVG 20010904//EN"
 "http://www.w3.org/TR/2001/REC-SVG-20010904/DTD/svg10.dtd">
<svg version="1.0" xmlns="http://www.w3.org/2000/svg"
 width="587.000000pt" height="522.000000pt" viewBox="0 0 587.000000 522.000000"
 preserveAspectRatio="xMidYMid meet">

<g transform="translate(0.000000,522.000000) scale(0.100000,-0.100000)"
fill="#000000" stroke="none">
<path d="M2645 4093 c-320 -11 -628 -47 -756 -90 l-77 -25 -58 -132 c-32 -72
-91 -207 -131 -300 -40 -93 -78 -175 -84 -183 -11 -12 -19 -9 -77 33 -2 1 4
42 13 90 18 96 15 130 -13 138 -34 11 -306 25 -342 17 -26 -5 -40 -16 -54 -42
-11 -20 -17 -43 -13 -53 4 -9 33 -28 64 -42 32 -13 67 -29 78 -33 137 -60 176
-82 195 -113 34 -56 28 -75 -37 -106 -73 -34 -119 -98 -157 -216 -54 -170 -57
-207 -63 -699 -5 -455 -5 -458 15 -464 20 -5 21 -14 24 -165 l3 -160 30 -24
30 -24 373 0 374 0 29 29 c28 29 29 32 29 130 l0 100 83 -2 c81 -2 83 -2 136
38 51 37 55 38 65 20 23 -39 78 -93 101 -99 15 -4 33 -24 52 -58 15 -29 43
-62 60 -74 84 -56 235 -30 324 57 l31 30 23 -21 c37 -34 108 -51 165 -39 50
11 124 64 135 98 4 12 19 21 43 26 57 10 105 42 135 90 22 34 37 46 78 59 l51
17 67 -39 c36 -22 91 -57 121 -77 54 -36 57 -37 123 -30 l67 6 0 -86 c0 -98
16 -146 56 -164 17 -7 138 -11 390 -11 l366 0 29 29 29 29 0 156 0 156 26 0
26 0 -5 473 c-4 432 -6 480 -25 565 -45 204 -99 299 -196 345 -56 28 -58 30
-52 60 12 62 43 85 199 152 82 34 154 68 160 74 16 16 -20 82 -53 98 -30 14
-326 1 -358 -16 -31 -16 -34 -41 -17 -122 20 -100 20 -104 -17 -128 -26 -16
-36 -18 -45 -8 -6 7 -45 91 -86 187 -159 370 -183 422 -201 432 -149 83 -822
134 -1481 111z m295 -128 l0 -45 -172 0 c-292 0 -721 -40 -803 -75 -27 -11
-41 -39 -150 -295 l-120 -283 -62 -51 -62 -51 127 -31 c379 -92 523 -124 556
-124 48 0 88 18 177 78 196 131 322 174 420 140 37 -12 89 -45 89 -56 0 -4
-48 -36 -106 -72 -209 -128 -255 -180 -262 -295 -4 -75 25 -136 87 -180 35
-25 53 -30 99 -30 51 0 73 8 210 78 145 73 184 85 224 69 9 -4 118 -106 242
-227 244 -237 254 -252 222 -314 -20 -38 -69 -65 -104 -56 -14 3 -63 42 -110
86 -77 73 -102 91 -102 72 0 -5 36 -46 80 -93 86 -92 102 -127 78 -177 -7 -15
-30 -36 -50 -46 -33 -16 -40 -16 -70 -4 -18 8 -71 54 -118 101 -46 47 -88 86
-92 86 -19 0 -3 -23 72 -103 44 -48 82 -98 86 -113 15 -61 -53 -129 -117 -117
-16 3 -62 41 -115 94 -49 49 -92 89 -96 89 -20 0 -3 -25 61 -93 78 -82 89
-108 67 -161 -27 -65 -108 -76 -162 -22 -27 27 -34 42 -34 74 0 82 -47 164
-110 191 -28 12 -42 27 -59 64 -17 36 -36 57 -76 82 -29 19 -56 43 -60 54 -10
33 -45 71 -85 91 -21 11 -42 29 -45 40 -9 30 -63 88 -96 106 -42 21 -141 18
-194 -7 -49 -23 -112 -89 -121 -126 -4 -13 -7 -23 -9 -23 -2 0 -38 7 -81 15
-85 16 -675 115 -685 115 -3 0 -5 -62 -4 -137 3 -249 4 -263 20 -263 12 0 15
-28 17 -172 l3 -173 263 -3 262 -2 0 141 0 142 38 -7 c21 -3 84 -9 139 -12 94
-6 103 -5 128 15 36 27 42 27 60 -9 22 -42 20 -45 -31 -75 -44 -26 -51 -27
-133 -20 -47 3 -94 9 -103 11 -16 5 -18 -5 -18 -106 0 -61 -4 -120 -10 -130
-17 -32 -60 -37 -280 -33 -118 1 -248 3 -288 3 -111 0 -112 2 -112 200 0 155
-1 160 -21 160 l-21 0 5 428 c5 459 10 515 62 657 14 39 35 82 48 96 12 14 72
51 132 82 120 61 153 90 178 152 9 22 46 108 82 190 37 83 85 194 108 249 46
111 48 113 173 140 152 34 476 59 802 64 l132 2 0 -45z m455 35 c335 -17 486
-35 608 -71 68 -20 69 -20 94 -77 14 -31 39 -86 55 -122 16 -36 49 -112 73
-170 113 -274 117 -278 290 -365 112 -57 133 -80 165 -183 36 -117 51 -278 55
-622 5 -381 2 -432 -28 -446 -20 -9 -21 -16 -22 -162 -1 -214 31 -195 -337
-195 -161 0 -302 3 -314 7 -33 10 -44 49 -44 159 l0 102 -102 -8 -103 -9 -102
68 -101 67 16 33 c10 19 21 34 27 34 5 0 49 -25 98 -56 l89 -57 97 7 c53 3
113 9 134 12 l37 7 0 -142 0 -141 260 0 260 0 0 175 0 175 25 0 25 0 0 276 0
276 -32 -7 c-18 -4 -196 -47 -394 -96 -415 -102 -455 -108 -501 -82 -18 10
-112 97 -211 193 -301 295 -295 290 -339 290 -42 0 -48 -3 -235 -109 -149 -85
-179 -92 -228 -59 -40 27 -60 61 -60 103 0 70 42 105 399 327 198 124 242 148
271 148 38 0 104 -42 222 -142 64 -54 131 -103 148 -108 22 -6 52 -3 108 11
79 20 103 27 355 104 82 25 155 45 163 45 22 0 17 10 -20 44 -26 24 -54 76
-116 221 -113 262 -160 368 -171 381 -8 10 -99 30 -219 48 -91 14 -441 36
-580 36 -196 0 -200 1 -200 51 l0 39 98 0 c53 0 183 -5 287 -10z m-1014 -1669
c23 -23 29 -39 29 -70 0 -40 1 -41 35 -41 63 0 105 -47 105 -116 0 -21 5 -24
35 -24 24 0 44 -9 67 -29 28 -24 32 -36 33 -75 0 -45 1 -46 32 -46 97 0 144
-97 91 -191 -42 -76 -170 -109 -224 -58 -21 20 -25 31 -21 64 3 22 8 50 12 63
7 21 6 22 -19 12 -46 -17 -93 -12 -116 12 -22 23 -27 77 -10 108 9 17 6 18
-48 13 -55 -5 -60 -4 -80 22 -24 30 -28 74 -11 106 10 19 8 20 -40 13 -65 -8
-97 11 -107 62 -10 55 12 113 62 162 40 38 49 42 95 42 43 0 55 -5 80 -29z"/>
</g>
</svg>
